<?xml version="1.0" encoding="UTF-8" standalone="no"?>
<!-- Created with Inkscape (http://www.inkscape.org/) -->

<svg
   width="67.999985mm"
   height="67.999992mm"
   viewBox="0 0 67.999985 67.999992"
   version="1.1"
   id="svg1"
   xml:space="preserve"
   inkscape:version="1.3 (0e150ed6c4, 2023-07-21)"
   sodipodi:docname="draft.svg"
   xmlns:inkscape="http://www.inkscape.org/namespaces/inkscape"
   xmlns:sodipodi="http://sodipodi.sourceforge.net/DTD/sodipodi-0.dtd"
   xmlns:xlink="http://www.w3.org/1999/xlink"
   xmlns="http://www.w3.org/2000/svg"
   xmlns:svg="http://www.w3.org/2000/svg"><sodipodi:namedview
     id="namedview1"
     pagecolor="#505050"
     bordercolor="#eeeeee"
     borderopacity="1"
     inkscape:showpageshadow="0"
     inkscape:pageopacity="0"
     inkscape:pagecheckerboard="0"
     inkscape:deskcolor="#505050"
     inkscape:document-units="mm"
     inkscape:zoom="1"
     inkscape:cx="-2215.5"
     inkscape:cy="247.5"
     inkscape:window-width="1600"
     inkscape:window-height="847"
     inkscape:window-x="-8"
     inkscape:window-y="760"
     inkscape:window-maximized="1"
     inkscape:current-layer="layer1"
     showgrid="true"><inkscape:grid
       id="grid6"
       units="mm"
       originx="2857.3227"
       originy="-423.3071"
       spacingx="0.99999998"
       spacingy="1"
       empcolor="#0099e5"
       empopacity="0.30196078"
       color="#0099e5"
       opacity="0.14901961"
       empspacing="5"
       dotted="false"
       gridanglex="30"
       gridanglez="30"
       visible="true"
       enabled="false" /><inkscape:grid
       visible="true"
       id="grid7"
       units="mm"
       originx="2857.3227"
       originy="-423.3071"
       spacingx="1"
       spacingy="1"
       empcolor="#0099e5"
       empopacity="0.30196078"
       color="#0099e5"
       opacity="0.14901961"
       empspacing="4"
       dotted="false"
       gridanglex="30"
       gridanglez="30" /></sodipodi:namedview><defs
     id="defs1"><linearGradient
       id="linearGradient16"
       inkscape:collect="always"><stop
         style="stop-color:#202020;stop-opacity:1;"
         offset="0"
         id="stop16" /><stop
         style="stop-color:#090909;stop-opacity:1;"
         offset="1"
         id="stop17" /></linearGradient><linearGradient
       inkscape:collect="always"
       xlink:href="#linearGradient16"
       id="linearGradient17"
       x1="-472"
       y1="52"
       x2="-460"
       y2="64"
       gradientUnits="userSpaceOnUse"
       gradientTransform="matrix(5.4527211,0,0,5.4527211,1817.6841,-171.54146)" /></defs><g
     inkscape:label="Calque 1"
     inkscape:groupmode="layer"
     id="layer1"
     transform="translate(755.99996,-112)"><rect
       style="opacity:1;fill:#000000;fill-rule:evenodd;stroke-width:7.08851;stroke-linejoin:bevel"
       id="rect8"
       width="65.432655"
       height="65.432648"
       x="-753.43268"
       y="114.56735"
       ry="10.905434"
       inkscape:export-filename="..\2K48\assets\images\icon.svg"
       inkscape:export-xdpi="464.45737"
       inkscape:export-ydpi="464.45737" /><rect
       style="opacity:1;fill:url(#linearGradient17);fill-rule:evenodd;stroke-width:7.73294;stroke-linejoin:bevel"
       id="rect11"
       width="65.432701"
       height="65.432663"
       x="-756"
       y="112"
       ry="11.896849"
       inkscape:transform-center-x="-9.6913507"
       inkscape:transform-center-y="19.892776" /><rect
       style="opacity:0;fill:#ffffff;fill-opacity:1;fill-rule:evenodd;stroke-width:2.54044;stroke-linejoin:bevel"
       id="rect12"
       width="46.150776"
       height="15.887489"
       x="-745.05634"
       y="136.85817"
       inkscape:export-filename="..\2K48\assets\images\logo.svg"
       inkscape:export-xdpi="2167.4678"
       inkscape:export-ydpi="2167.4678" /><g
       id="g15"
       transform="matrix(6.8675299,0,0,6.8675299,2925.2767,-304.02684)"><path
         d="m -534.22979,66.358425 c 0.0635,0 0.11469,-0.0039 0.15357,-0.01166 0.0389,-0.0078 0.07,-0.02074 0.0933,-0.03888 0.0233,-0.01814 0.0415,-0.04147 0.0544,-0.06998 0.0142,-0.0298 0.0317,-0.07516 0.0524,-0.136074 h 0.16524 l -0.033,0.567622 h -1.59984 v -0.09331 c 0.0557,-0.136073 0.13089,-0.275387 0.2255,-0.41794 0.0946,-0.142554 0.22873,-0.310378 0.40238,-0.503473 0.15033,-0.165881 0.25855,-0.291587 0.32464,-0.377118 0.0726,-0.09331 0.12635,-0.173656 0.16134,-0.241046 0.0363,-0.06868 0.0622,-0.132833 0.0778,-0.192446 0.0155,-0.06091 0.0233,-0.121819 0.0233,-0.182728 0,-0.0972 -0.0155,-0.182728 -0.0467,-0.256597 -0.0311,-0.07516 -0.079,-0.134129 -0.14385,-0.176895 -0.0635,-0.04277 -0.14385,-0.06415 -0.24105,-0.06415 -0.24233,0 -0.40562,0.134777 -0.48986,0.404333 h -0.23521 v -0.373231 c 0.15681,-0.07387 0.30325,-0.127002 0.43932,-0.1594 0.13737,-0.03369 0.26048,-0.05054 0.36934,-0.05054 0.24105,0 0.42313,0.05313 0.54624,0.159401 0.12312,0.104971 0.18468,0.257891 0.18468,0.458762 0,0.06868 -0.007,0.132186 -0.0214,0.190503 -0.013,0.05702 -0.0344,0.114043 -0.0642,0.171065 -0.0285,0.05572 -0.0674,0.115986 -0.11664,0.180783 -0.0492,0.06479 -0.10367,0.13089 -0.16329,0.198278 -0.0596,0.06609 -0.16263,0.176897 -0.30908,0.332409 -0.24622,0.260484 -0.42701,0.487921 -0.54235,0.682312 z"
         id="path12"
         sodipodi:nodetypes="sssccccccsccccsccsccccscsccscccs"
         style="font-size:11.2889px;line-height:0px;font-family:Cambria;-inkscape-font-specification:Cambria;font-variant-numeric:proportional-nums;text-align:end;letter-spacing:-0.529167px;text-anchor:end;fill:#ffffff;fill-rule:evenodd;stroke-width:0.458456;stroke-linejoin:bevel" /><path
         style="font-size:11.2889px;line-height:0px;font-family:Cambria;-inkscape-font-specification:Cambria;font-variant-numeric:proportional-nums;text-align:end;letter-spacing:-0.529167px;text-anchor:end;fill:#aa0000;fill-rule:evenodd;stroke-width:0.458456;stroke-linejoin:bevel"
         d="m -532.46083,66.183474 c 0,0.10497 0.004,0.180135 0.0136,0.225492 0.0104,0.04406 0.0298,0.07776 0.0583,0.101084 0.0298,0.02333 0.0816,0.04471 0.15551,0.06415 v 0.09525 h -1.21299 V 66.5742 c 0.0803,-0.02074 0.13413,-0.04341 0.16135,-0.06804 0.0272,-0.02592 0.0447,-0.06221 0.0525,-0.10886 0.009,-0.04665 0.0136,-0.11793 0.0136,-0.213829 V 64.50199 c 0,-0.08942 -0.003,-0.154217 -0.01,-0.194392 -0.007,-0.04147 -0.0175,-0.07322 -0.033,-0.09525 -0.0142,-0.02333 -0.0337,-0.04147 -0.0583,-0.05443 -0.0246,-0.01425 -0.0667,-0.0298 -0.12636,-0.04666 v -0.09525 h 1.213 v 0.09525 c -0.0687,0.01685 -0.11792,0.03564 -0.14774,0.05638 -0.0285,0.02074 -0.0492,0.05313 -0.0622,0.0972 -0.0117,0.04277 -0.0175,0.121818 -0.0175,0.237157 v 0.693976 h 0.0661 c 0.0622,0 0.11534,-0.0084 0.1594,-0.02527 0.0453,-0.01685 0.0894,-0.04471 0.13219,-0.08359 0.0441,-0.03888 0.0894,-0.08424 0.13607,-0.136075 0.10497,-0.120522 0.1918,-0.226789 0.26048,-0.318801 0.07,-0.09331 0.11729,-0.170416 0.14191,-0.231325 0.0194,-0.04536 0.0292,-0.09266 0.0292,-0.141905 0,-0.05054 -0.0181,-0.08683 -0.0544,-0.108859 -0.035,-0.02203 -0.0855,-0.03499 -0.15163,-0.03888 v -0.09525 h 0.9739 v 0.09914 c -0.0726,0.01296 -0.13931,0.04406 -0.20022,0.09331 -0.0609,0.04924 -0.13737,0.127002 -0.22938,0.233269 l -0.49375,0.569566 0.70175,1.193561 c 0.0415,0.06998 0.0771,0.128298 0.10691,0.174951 0.0311,0.04666 0.059,0.08229 0.0836,0.106916 0.0246,0.02463 0.048,0.04277 0.07,0.05443 0.0221,0.01166 0.0525,0.02268 0.0914,0.03305 v 0.09525 h -1.27715 v -0.09719 c 0.0415,-0.0064 0.0733,-0.01879 0.0953,-0.03694 0.022,-0.01944 0.033,-0.04277 0.033,-0.06998 0,-0.03629 -0.007,-0.07193 -0.0214,-0.106915 -0.0143,-0.03629 -0.0512,-0.109507 -0.11081,-0.219662 l -0.2391,-0.443211 c -0.0492,-0.09072 -0.0868,-0.153569 -0.11275,-0.188559 -0.0246,-0.03499 -0.0473,-0.05832 -0.068,-0.06998 -0.0207,-0.01166 -0.046,-0.0175 -0.0758,-0.0175 h -0.0467 z m -0.54236,0.314912 h 0.32658 v -2.311308 h -0.32658 z m 0.90587,-1.133299 0.63371,1.133299 h 0.35769 l -0.64538,-1.131355 c -0.0609,-0.103675 -0.10174,-0.170416 -0.12247,-0.200223 -0.002,-0.0052 -0.005,-0.0091 -0.008,-0.01166 -0.001,-0.0026 -0.003,-0.0039 -0.004,-0.0039 z m 1.89336,1.209112 c 0.0739,-0.01814 0.12507,-0.03888 0.15357,-0.06221 0.0286,-0.02333 0.048,-0.05767 0.0583,-0.103027 0.0104,-0.04536 0.0155,-0.120523 0.0155,-0.225493 v -0.318802 h -1.08081 v -0.145793 l 1.13719,-1.716473 h 0.27797 v 1.673706 h 0.0408 c 0.0752,0 0.12894,-0.0052 0.16134,-0.01555 0.0325,-0.01166 0.059,-0.0311 0.0797,-0.05832 0.0221,-0.02851 0.0421,-0.07452 0.0603,-0.138017 h 0.14774 l -0.0233,0.400446 h -0.46654 v 0.318801 c 0,0.08683 0.002,0.150329 0.008,0.190503 0.007,0.04018 0.0163,0.07193 0.0291,0.09525 0.0143,0.02333 0.0344,0.04277 0.0603,0.05832 0.0272,0.01555 0.0706,0.03111 0.13024,0.04665 v 0.09525 h -0.78923 z m -0.53262,-0.898087 h 0.76007 v -0.484033 c 0,-0.121819 10e-4,-0.257892 0.006,-0.408221 0.004,-0.151625 0.008,-0.265668 0.0136,-0.342128 h -0.0194 l -0.76007,1.207168 z"
         id="path13"
         sodipodi:nodetypes="sccccccccsscccccccccscscccccscccccsccccsscccccsccccsscsccccccccccccccsssccccccsccccccscccccccccsscccc" /><path
         d="m -527.65937,65.267891 0.004,0.02527 q 0.21966,0.08553 0.3324,0.250764 0.11275,0.163289 0.11275,0.394614 0,0.227437 -0.10886,0.400446 -0.10885,0.173007 -0.31685,0.268259 -0.20606,0.09331 -0.48209,0.09331 -0.25854,0 -0.45488,-0.08553 -0.19439,-0.08748 -0.30324,-0.252708 -0.10692,-0.167177 -0.10692,-0.392671 0,-0.169119 0.0583,-0.29353 0.0583,-0.12441 0.15162,-0.20411 0.0953,-0.08164 0.23911,-0.147737 l -0.004,-0.02527 q -0.41793,-0.180784 -0.41793,-0.620108 0,-0.200222 0.10886,-0.357679 0.1108,-0.157457 0.31296,-0.246877 0.20411,-0.08942 0.451,-0.08942 0.27991,0 0.47042,0.0797 0.1905,0.07776 0.28575,0.227437 0.0972,0.147737 0.0972,0.355735 0,0.21383 -0.10497,0.369344 -0.10497,0.153568 -0.32463,0.250763 z m -0.93114,-0.606499 q 0,0.11469 0.0272,0.215774 0.0272,0.101083 0.0875,0.174952 0.0603,0.07387 0.15551,0.118578 0.0972,0.04277 0.23716,0.04277 0.16134,0 0.2702,-0.06221 0.1108,-0.06415 0.16329,-0.184671 0.0544,-0.122467 0.0544,-0.281867 0,-0.174953 -0.0642,-0.295474 -0.0622,-0.122466 -0.173,-0.180784 -0.11081,-0.05832 -0.25466,-0.05832 -0.24493,0 -0.37517,0.13413 -0.1283,0.132186 -0.1283,0.377119 z m -0.0214,1.275204 q 0,0.126355 0.0291,0.237158 0.0292,0.108858 0.0914,0.188559 0.0642,0.0797 0.16329,0.126354 0.0991,0.04665 0.24105,0.04665 0.15939,0 0.27214,-0.06415 0.11469,-0.06609 0.17301,-0.194391 0.0603,-0.128298 0.0603,-0.30325 0,-0.186615 -0.0642,-0.320745 -0.0642,-0.136074 -0.18079,-0.206055 -0.11663,-0.07193 -0.2702,-0.07193 -0.14384,0 -0.24299,0.04471 -0.0972,0.04471 -0.15939,0.120522 -0.0603,0.07581 -0.0875,0.17884 -0.0253,0.101083 -0.0253,0.217718 z"
         id="path14"
         style="font-size:11.2889px;line-height:0px;font-family:Cambria;-inkscape-font-specification:Cambria;font-variant-numeric:proportional-nums;text-align:end;letter-spacing:-0.529167px;text-anchor:end;fill:#ffffff;fill-rule:evenodd;stroke-width:0.458456;stroke-linejoin:bevel" /></g></g></svg>
