<?xml version="1.0" encoding="UTF-8" standalone="no"?>
<!-- Created with Inkscape (http://www.inkscape.org/) -->

<svg
   width="23.999989mm"
   height="8.262044mm"
   viewBox="0 0 23.999989 8.262044"
   version="1.1"
   id="svg1"
   xml:space="preserve"
   inkscape:version="1.3 (0e150ed6c4, 2023-07-21)"
   sodipodi:docname="draft.svg"
   xmlns:inkscape="http://www.inkscape.org/namespaces/inkscape"
   xmlns:sodipodi="http://sodipodi.sourceforge.net/DTD/sodipodi-0.dtd"
   xmlns="http://www.w3.org/2000/svg"
   xmlns:svg="http://www.w3.org/2000/svg"><sodipodi:namedview
     id="namedview1"
     pagecolor="#505050"
     bordercolor="#eeeeee"
     borderopacity="1"
     inkscape:showpageshadow="0"
     inkscape:pageopacity="0"
     inkscape:pagecheckerboard="0"
     inkscape:deskcolor="#505050"
     inkscape:document-units="mm"
     inkscape:zoom="0.14205605"
     inkscape:cx="77.434223"
     inkscape:cy="475.16455"
     inkscape:window-width="1600"
     inkscape:window-height="847"
     inkscape:window-x="-8"
     inkscape:window-y="760"
     inkscape:window-maximized="1"
     inkscape:current-layer="layer1"
     showgrid="true"><inkscape:grid
       id="grid6"
       units="mm"
       originx="2040.9449"
       originy="-272.12598"
       spacingx="0.99999998"
       spacingy="1"
       empcolor="#0099e5"
       empopacity="0.30196078"
       color="#0099e5"
       opacity="0.14901961"
       empspacing="5"
       dotted="false"
       gridanglex="30"
       gridanglez="30"
       visible="true"
       enabled="false" /><inkscape:grid
       visible="true"
       id="grid7"
       units="mm"
       originx="2040.9449"
       originy="-272.12598"
       spacingx="1"
       spacingy="1"
       empcolor="#0099e5"
       empopacity="0.30196078"
       color="#0099e5"
       opacity="0.14901961"
       empspacing="4"
       dotted="false"
       gridanglex="30"
       gridanglez="30" /></sodipodi:namedview><defs
     id="defs1" /><g
     inkscape:label="Calque 1"
     inkscape:groupmode="layer"
     id="layer1"
     transform="translate(540.00001,-71.999998)"><rect
       style="opacity:0;fill:#ffffff;fill-opacity:1;fill-rule:evenodd;stroke-width:1.32112;stroke-linejoin:bevel"
       id="rect9"
       width="24"
       height="8.262044"
       x="-540"
       y="72"
       inkscape:export-filename="..\2K48\assets\images\logo.png"
       inkscape:export-xdpi="2167.4678"
       inkscape:export-ydpi="2167.4678" /><g
       id="g9"
       transform="translate(-2.17726,-3.7192205)"><g
         id="text2"
         style="font-size:11.2889px;line-height:0px;font-family:Cambria;-inkscape-font-specification:Cambria;font-variant-numeric:proportional-nums;text-align:end;letter-spacing:-0.529167px;text-anchor:end;fill-rule:evenodd;stroke-width:1.3;stroke-linejoin:bevel"
         aria-label="2ð•‚48"><path
           d="m -534.1957,82.730344 c 0.18006,0 0.32522,-0.01102 0.43546,-0.03307 0.11024,-0.02205 0.19844,-0.05879 0.26458,-0.110243 0.0661,-0.05145 0.11758,-0.117593 0.15434,-0.198438 0.0404,-0.08452 0.09,-0.213136 0.14883,-0.385851 h 0.46853 l -0.0937,1.60955 h -4.53651 v -0.264583 c 0.15802,-0.385851 0.37115,-0.780889 0.63941,-1.185114 0.26826,-0.404225 0.6486,-0.880108 1.14102,-1.427649 0.42628,-0.470371 0.73312,-0.826824 0.92053,-1.069359 0.20579,-0.264583 0.35829,-0.492419 0.45751,-0.683508 0.1029,-0.194763 0.17639,-0.376664 0.22048,-0.545703 0.0441,-0.172715 0.0661,-0.345429 0.0661,-0.518143 0,-0.275608 -0.0441,-0.518143 -0.13229,-0.727605 -0.0882,-0.213137 -0.22416,-0.380339 -0.4079,-0.501607 -0.18006,-0.121267 -0.4079,-0.181901 -0.68351,-0.181901 -0.68718,0 -1.1502,0.382176 -1.38906,1.146529 h -0.66697 v -1.058334 c 0.44465,-0.209462 0.8599,-0.360128 1.24574,-0.451997 0.38953,-0.09554 0.73863,-0.143316 1.04731,-0.143316 0.68352,0 1.19982,0.150666 1.54892,0.451997 0.34911,0.297657 0.52366,0.73128 0.52366,1.300869 0,0.194763 -0.0202,0.374827 -0.0606,0.540192 -0.0367,0.16169 -0.0974,0.32338 -0.1819,0.48507 -0.0808,0.158015 -0.19109,0.328891 -0.33073,0.51263 -0.13964,0.183739 -0.29398,0.371152 -0.46302,0.56224 -0.16904,0.187413 -0.46118,0.501606 -0.87643,0.942579 -0.6982,0.738629 -1.21084,1.383552 -1.5379,1.934768 z"
           id="path7"
           sodipodi:nodetypes="sssccccccsccccsccsccccscsccscccs" /><path
           style="fill:#aa0000"
           d="m -529.17964,82.23425 c 0,0.297657 0.0129,0.510793 0.0386,0.63941 0.0294,0.124943 0.0845,0.220487 0.16536,0.286632 0.0845,0.06615 0.23151,0.126781 0.44097,0.181902 v 0.270095 h -3.43958 v -0.270095 c 0.22784,-0.0588 0.38034,-0.123109 0.45751,-0.192926 0.0772,-0.0735 0.12678,-0.176389 0.14883,-0.308681 0.0257,-0.132291 0.0386,-0.334404 0.0386,-0.606337 v -4.768017 c 0,-0.253559 -0.009,-0.437298 -0.0276,-0.551216 -0.0184,-0.117593 -0.0496,-0.207625 -0.0937,-0.270096 -0.0404,-0.06615 -0.0955,-0.117593 -0.16536,-0.15434 -0.0698,-0.04042 -0.18925,-0.08452 -0.35829,-0.132292 v -0.270096 h 3.43958 v 0.270096 c -0.19476,0.04777 -0.3344,0.101058 -0.41892,0.159853 -0.0808,0.05879 -0.13964,0.150663 -0.17639,0.275608 -0.0331,0.121267 -0.0496,0.345428 -0.0496,0.672483 v 1.96784 h 0.18742 c 0.17639,0 0.32705,-0.02389 0.45199,-0.07166 0.12862,-0.04777 0.25357,-0.126781 0.37483,-0.237022 0.12494,-0.110243 0.25356,-0.238861 0.38585,-0.385852 0.29766,-0.341753 0.54387,-0.643085 0.73863,-0.903994 0.19844,-0.264583 0.33257,-0.483232 0.40239,-0.655946 0.0551,-0.128617 0.0827,-0.262747 0.0827,-0.402388 0,-0.143316 -0.0514,-0.24621 -0.15434,-0.308681 -0.0992,-0.06247 -0.24253,-0.09922 -0.42995,-0.110243 v -0.270096 h 2.76159 v 0.28112 c -0.20578,0.03675 -0.39503,0.124941 -0.56775,0.264584 -0.17271,0.139641 -0.38952,0.360128 -0.65043,0.661459 l -1.40009,1.615062 1.98989,3.384466 c 0.1176,0.198437 0.21865,0.363802 0.30316,0.496094 0.0882,0.132292 0.16721,0.233348 0.23703,0.303169 0.0698,0.06982 0.13597,0.121267 0.19844,0.15434 0.0625,0.03307 0.14883,0.06431 0.25907,0.09371 v 0.270095 h -3.62149 v -0.275607 c 0.1176,-0.01837 0.20763,-0.05328 0.27009,-0.104731 0.0625,-0.05512 0.0937,-0.121266 0.0937,-0.198438 0,-0.102894 -0.0202,-0.20395 -0.0606,-0.303169 -0.0404,-0.102893 -0.14513,-0.310518 -0.3142,-0.622874 l -0.67799,-1.256772 c -0.13964,-0.257234 -0.24621,-0.43546 -0.31971,-0.534679 -0.0698,-0.09922 -0.13412,-0.165365 -0.19292,-0.198438 -0.0588,-0.03307 -0.13046,-0.04961 -0.21498,-0.04961 h -0.13229 z m -1.53789,0.892969 h 0.92604 v -6.553956 h -0.92604 z m 2.56867,-3.213588 1.79696,3.213588 h 1.01424 l -1.83004,-3.208076 c -0.17271,-0.293981 -0.28847,-0.483232 -0.34727,-0.567752 -0.007,-0.0147 -0.0147,-0.02572 -0.022,-0.03307 -0.004,-0.0073 -0.008,-0.01102 -0.011,-0.01102 z m 5.36884,3.428563 c 0.20947,-0.05145 0.35462,-0.110243 0.43546,-0.176389 0.0809,-0.06615 0.13597,-0.163528 0.16537,-0.292145 0.0294,-0.128617 0.0441,-0.341753 0.0441,-0.63941 v -0.903994 h -3.06476 v -0.413412 l 3.22461,-4.867236 h 0.78824 v 4.745968 h 0.11575 c 0.21314,0 0.36564,-0.0147 0.45751,-0.0441 0.0919,-0.03307 0.16721,-0.08819 0.226,-0.165365 0.0625,-0.08084 0.11943,-0.211299 0.17088,-0.391363 h 0.41892 l -0.0661,1.135505 h -1.32291 v 0.903994 c 0,0.246209 0.007,0.426273 0.0221,0.540191 0.0184,0.113918 0.046,0.20395 0.0827,0.270096 0.0404,0.06615 0.0974,0.121268 0.17087,0.165365 0.0772,0.0441 0.20028,0.0882 0.36932,0.132292 v 0.270095 h -2.23794 z m -1.51033,-2.546618 h 2.15526 v -1.372527 c 0,-0.345429 0.005,-0.73128 0.0165,-1.157553 0.011,-0.429949 0.0239,-0.753329 0.0386,-0.97014 h -0.0551 l -2.15526,3.42305 z"
           id="path8"
           sodipodi:nodetypes="sccccccccsscccccccccscscccccscccccsccccsscccccsccccsscsccccccccccccccsssccccccsccccccscccccccccsscccc" /><path
           d="m -515.5646,79.638023 0.011,0.07166 q 0.62288,0.242535 0.94258,0.711069 0.31971,0.463021 0.31971,1.118968 0,0.644922 -0.30868,1.135505 -0.30869,0.490582 -0.89849,0.760677 -0.58429,0.264584 -1.36701,0.264584 -0.73312,0 -1.28985,-0.242535 -0.55121,-0.248047 -0.85989,-0.716581 -0.30317,-0.474045 -0.30317,-1.113456 0,-0.479557 0.16536,-0.832336 0.16537,-0.352778 0.42995,-0.578776 0.2701,-0.231511 0.678,-0.418924 l -0.011,-0.07166 q -1.18511,-0.512631 -1.18511,-1.758379 0,-0.567752 0.30868,-1.014237 0.31419,-0.446485 0.88746,-0.700044 0.57877,-0.253559 1.27882,-0.253559 0.79375,0 1.33394,0.225998 0.54019,0.220487 0.81029,0.644923 0.2756,0.418924 0.2756,1.008725 0,0.606337 -0.29765,1.04731 -0.29766,0.43546 -0.92053,0.711068 z m -2.64033,-1.719793 q 0,0.325217 0.0772,0.611849 0.0772,0.286633 0.24805,0.496095 0.17088,0.209462 0.44097,0.336241 0.27561,0.121268 0.67249,0.121268 0.45751,0 0.76619,-0.176389 0.31419,-0.181901 0.46302,-0.523655 0.15434,-0.347266 0.15434,-0.799263 0,-0.496095 -0.1819,-0.837848 -0.17639,-0.347266 -0.49058,-0.512631 -0.3142,-0.165365 -0.7221,-0.165365 -0.69453,0 -1.06384,0.380339 -0.36381,0.374827 -0.36381,1.069359 z m -0.0606,3.615976 q 0,0.35829 0.0827,0.672483 0.0827,0.308681 0.25907,0.534679 0.18191,0.225999 0.46303,0.358291 0.28112,0.132292 0.6835,0.132292 0.452,0 0.7717,-0.181902 0.32522,-0.187413 0.49059,-0.551216 0.17087,-0.363802 0.17087,-0.859896 0,-0.529167 -0.1819,-0.909506 -0.1819,-0.385851 -0.51263,-0.584289 -0.33073,-0.20395 -0.76619,-0.20395 -0.4079,0 -0.68902,0.12678 -0.27561,0.126779 -0.45199,0.341753 -0.17088,0.214975 -0.24805,0.507119 -0.0717,0.286632 -0.0717,0.617362 z"
           id="path9" /></g></g></g></svg>
