<?xml version="1.0" encoding="UTF-8" standalone="no"?>
<!-- Created with Inkscape (http://www.inkscape.org/) -->

<svg
   width="11.954567mm"
   height="11.954535mm"
   viewBox="0 0 11.954567 11.954535"
   version="1.1"
   id="svg1"
   xml:space="preserve"
   inkscape:version="1.3 (0e150ed6c4, 2023-07-21)"
   sodipodi:docname="draft.svg"
   xmlns:inkscape="http://www.inkscape.org/namespaces/inkscape"
   xmlns:sodipodi="http://sodipodi.sourceforge.net/DTD/sodipodi-0.dtd"
   xmlns="http://www.w3.org/2000/svg"
   xmlns:svg="http://www.w3.org/2000/svg"><sodipodi:namedview
     id="namedview1"
     pagecolor="#505050"
     bordercolor="#eeeeee"
     borderopacity="1"
     inkscape:showpageshadow="0"
     inkscape:pageopacity="0"
     inkscape:pagecheckerboard="0"
     inkscape:deskcolor="#505050"
     inkscape:document-units="mm"
     inkscape:zoom="0.14205605"
     inkscape:cx="77.434223"
     inkscape:cy="475.16455"
     inkscape:window-width="1600"
     inkscape:window-height="847"
     inkscape:window-x="-8"
     inkscape:window-y="760"
     inkscape:window-maximized="1"
     inkscape:current-layer="layer1"
     showgrid="true"><inkscape:grid
       id="grid6"
       units="mm"
       originx="2282.7489"
       originy="-30.322139"
       spacingx="0.99999998"
       spacingy="1"
       empcolor="#0099e5"
       empopacity="0.30196078"
       color="#0099e5"
       opacity="0.14901961"
       empspacing="5"
       dotted="false"
       gridanglex="30"
       gridanglez="30"
       visible="true"
       enabled="false" /><inkscape:grid
       visible="true"
       id="grid7"
       units="mm"
       originx="2282.7489"
       originy="-30.322139"
       spacingx="1"
       spacingy="1"
       empcolor="#0099e5"
       empopacity="0.30196078"
       color="#0099e5"
       opacity="0.14901961"
       empspacing="4"
       dotted="false"
       gridanglex="30"
       gridanglez="30" /></sodipodi:namedview><defs
     id="defs1" /><g
     inkscape:label="Calque 1"
     inkscape:groupmode="layer"
     id="layer1"
     transform="translate(603.97731,-8.0227325)"><path
       id="path67"
       style="opacity:1;fill:#000000;fill-opacity:1;fill-rule:evenodd;stroke-width:1.3;stroke-linejoin:bevel"
       d="m -593.4054,10.14148 -0.87097,-0.8475749 -1.44727,0.252935 -0.8992,-0.353944 -0.85666,-1.170164 -1.15116,0.01 -0.84177,1.187605 -0.90609,0.380457 -1.48002,-0.195478 -0.84762,0.8710319 0.25289,1.44728 -0.35393,0.899281 -1.17011,0.856777 0.0101,1.151209 1.18765,0.841768 0.38055,0.906111 -0.19528,1.480084 0.87101,0.847516 1.44727,-0.253067 0.89924,0.353849 0.85673,1.170111 1.15116,-0.0101 0.84168,-1.18773 0.90604,-0.380549 1.48006,0.1954 0.84745,-0.870994 -0.2531,-1.44721 0.35385,-0.899174 1.17019,-0.856677 -0.01,-1.15109 -1.18772,-0.841624 -0.38045,-0.906019 0.19558,-1.48001 z m -1.09629,1.917995 0.30848,0.708807 1.16585,0.706016 0.008,0.959235 -1.14681,0.709047 -0.29723,0.727843 0.38496,1.232312 -0.70621,0.725826 -1.275,-0.330392 -0.70887,0.308548 -0.70592,1.165962 -0.95931,0.0084 -0.70933,-1.146935 -0.72791,-0.297293 -1.23217,0.385146 -0.72588,-0.706257 0.33025,-1.275427 -0.3085,-0.708978 -1.1659,-0.705596 -0.008,-0.959359 1.14711,-0.709704 0.29736,-0.727793 -0.38516,-1.232013 0.70637,-0.725867 1.27532,0.330406 0.70893,-0.308423 0.70568,-1.1658249 0.95931,-0.0083 0.70943,1.1470759 0.72772,0.297305 1.23214,-0.385016 0.7258,0.706335 z m -3.23794,-1.048265 a 2.9999945,2.9999974 4.9747253 0 0 -3.24918,2.728338 2.9999945,2.9999974 4.9747253 0 0 2.72886,3.24921 2.9999945,2.9999974 4.9747253 0 0 3.24869,-2.728899 2.9999945,2.9999974 4.9747253 0 0 -2.72837,-3.248649 z m -0.0867,0.996172 a 1.9999955,1.9999974 4.9747253 0 1 1.81892,2.165766 1.9999955,1.9999974 4.9747253 0 1 -2.1658,1.819438 1.9999955,1.9999974 4.9747253 0 1 -1.8194,-2.166327 1.9999955,1.9999974 4.9747253 0 1 2.16628,-1.818877 z"
       inkscape:export-filename="..\2K48\assets\icons\settings.svg"
       inkscape:export-xdpi="4351.4077"
       inkscape:export-ydpi="4351.4077" /></g></svg>
