<?xml version="1.0" encoding="UTF-8" standalone="no"?>
<!-- Created with Inkscape (http://www.inkscape.org/) -->

<svg
   width="12.000301mm"
   height="11.999785mm"
   viewBox="0 0 12.000301 11.999785"
   version="1.1"
   id="svg1"
   xml:space="preserve"
   inkscape:version="1.3 (0e150ed6c4, 2023-07-21)"
   sodipodi:docname="draft.svg"
   xmlns:inkscape="http://www.inkscape.org/namespaces/inkscape"
   xmlns:sodipodi="http://sodipodi.sourceforge.net/DTD/sodipodi-0.dtd"
   xmlns="http://www.w3.org/2000/svg"
   xmlns:svg="http://www.w3.org/2000/svg"><sodipodi:namedview
     id="namedview1"
     pagecolor="#505050"
     bordercolor="#eeeeee"
     borderopacity="1"
     inkscape:showpageshadow="0"
     inkscape:pageopacity="0"
     inkscape:pagecheckerboard="0"
     inkscape:deskcolor="#505050"
     inkscape:document-units="mm"
     inkscape:zoom="0.14205605"
     inkscape:cx="77.434223"
     inkscape:cy="475.16455"
     inkscape:window-width="1600"
     inkscape:window-height="847"
     inkscape:window-x="-8"
     inkscape:window-y="760"
     inkscape:window-maximized="1"
     inkscape:current-layer="layer1"
     showgrid="true"><inkscape:grid
       id="grid6"
       units="mm"
       originx="2222.3632"
       originy="-151.18165"
       spacingx="0.99999998"
       spacingy="1"
       empcolor="#0099e5"
       empopacity="0.30196078"
       color="#0099e5"
       opacity="0.14901961"
       empspacing="5"
       dotted="false"
       gridanglex="30"
       gridanglez="30"
       visible="true"
       enabled="false" /><inkscape:grid
       visible="true"
       id="grid7"
       units="mm"
       originx="2222.3632"
       originy="-151.18165"
       spacingx="1"
       spacingy="1"
       empcolor="#0099e5"
       empopacity="0.30196078"
       color="#0099e5"
       opacity="0.14901961"
       empspacing="4"
       dotted="false"
       gridanglex="30"
       gridanglez="30" /></sodipodi:namedview><defs
     id="defs1" /><g
     inkscape:label="Calque 1"
     inkscape:groupmode="layer"
     id="layer1"
     transform="translate(588.00026,-40.000144)"><path
       id="path47"
       style="font-size:11.2889px;line-height:0px;font-family:Cambria;-inkscape-font-specification:Cambria;font-variant-numeric:proportional-nums;text-align:end;letter-spacing:-0.529167px;text-anchor:end;opacity:1;fill:#000000;fill-rule:evenodd;stroke-width:1.77325;stroke-linejoin:bevel"
       inkscape:transform-center-x="6.7969775"
       inkscape:transform-center-y="0.50375932"
       d="m -580.00026,40.000142 -4.38991,2.195215 0.72399,0.723987 2.66598,-1.332735 v 1.999361 l 1.00304,-1.003039 c -10e-4,-0.861758 -10e-4,-1.724771 -0.003,-2.582789 z m -6.94944,0.343132 -0.70694,0.706934 4.95009,4.950085 -4.95009,4.949569 0.70694,0.706933 4.95008,-4.949568 4.94957,4.949568 0.70693,-0.706933 -4.94956,-4.949569 4.94956,-4.950085 -0.70693,-0.706934 -4.94957,4.950085 z m 9.76581,2.254643 -0.47956,0.479557 0.66353,0.922424 v 4.000273 l -0.66146,0.923975 0.48007,0.48059 1.18133,-1.404565 v -4.000273 z m -10.81639,0.402042 v 6.000151 h 1.58594 l 1.41439,-1.414384 v -3.171383 l -1.41439,-1.414384 z m 9.59786,0.816488 -0.49609,0.496094 0.49454,0.687296 v 2.000395 l -0.49299,0.688847 0.49609,0.496094 0.99684,-1.184941 v -2.000395 z m -8.59741,0.183451 h 0.99994 v 4.000273 h -0.99994 z m 7.00629,1.407666 -0.59221,0.592212 0.59118,0.591179 c 10e-6,-0.397782 10e-4,-0.784697 10e-4,-1.183391 z m -1.00666,3.006018 v 1.867587 l -2.57813,-1.288811 -0.81236,0.812354 4.39043,2.195215 c 0.002,-0.846983 10e-4,-1.724006 0.003,-2.583822 z"
       inkscape:export-filename="..\2K48\assets\icons\sound-off.svg"
       inkscape:export-xdpi="4334.8247"
       inkscape:export-ydpi="4334.8247" /></g></svg>
